<svg width="44" height="50" xmlns="http://www.w3.org/2000/svg">
 <!-- Created with Method Draw - http://github.com/duopixel/Method-Draw/ -->

 <g>
  <title>background</title>
  <rect fill="#ffffff" id="canvas_background" height="52" width="46" y="-1" x="-1"/>
  <g display="none" overflow="visible" y="0" x="0" height="100%" width="100%" id="canvasGrid">
   <rect fill="url(#gridpattern)" stroke-width="0" y="0" x="0" height="100%" width="100%"/>
  </g>
 </g>
 <g>
  <title>Layer 1</title>
  <g stroke="null" id="svg_1298">
   <path stroke="null" id="svg_5" d="m2.27922,47.55568l38.20393,0l1.09038,-10.7285c0,0 0.17453,-1.09038 -1.26465,-1.26465c0,0 -1.00298,-0.21797 -1.26465,1.22122s-0.26167,1.43919 -0.26167,1.43919l0,0c0,0 -1.43919,5.49509 -5.36425,5.71306l-11.27356,-0.08714c0,0 -4.29585,-0.13084 -4.29585,-4.71007s0,-13.03984 0,-13.03984l10.5974,0c0,0 4.61352,-0.18579 4.79721,3.14005c0,0 -0.10912,2.39874 1.33007,2.39874c0,0 1.33007,0.21797 1.33007,-1.30835l0,-11.94972c0,0 0.30537,-1.61372 -1.09038,-1.52633c0,0 -1.30835,-0.06542 -1.13382,1.46091c0,0 0,3.85964 -4.57924,4.12131l-11.38242,0l0.0437,-17.0086l13.03984,0c0,0 5.23342,-0.21797 5.66962,4.0122l-0.0437,2.52957c0,0 0.02172,1.26465 1.50461,1.26465c0,0 1.37377,0.17453 1.37377,-1.22122l0,-9.46385l-34.93305,0l0.0437,1.87539l1.52633,-0.0437c0,0 4.23043,-0.47964 4.4484,4.4921l0.0437,31.37877c0,0 0.34881,4.16501 -3.79423,4.42668l-4.4921,0l0,2.74754l0.13084,0.13057z" fill="#2DABE2"/>
   <path stroke="#2DABE2" id="svg_7" d="m39.02587,53.276" stroke-miterlimit="10" fill="none"/>
  </g>
 </g>
</svg>